<svg width="204" height="63" viewBox="0 0 204 63" fill="none" xmlns="http://www.w3.org/2000/svg">
<path d="M26.1789 30L38.7789 2H43.8989L56.5389 30H51.0989L40.2589 4.76H42.3389L31.5389 30H26.1789ZM31.9789 23.52L33.3789 19.44H48.4989L49.8989 23.52H31.9789ZM59.6198 30V0.319998H64.6198V30H59.6198ZM83.0223 30.28C81.209 30.28 79.5957 29.88 78.1823 29.08C76.769 28.28 75.649 27.08 74.8223 25.48C74.0223 23.8533 73.6223 21.8 73.6223 19.32C73.6223 16.8133 74.0357 14.76 74.8623 13.16C75.7157 11.56 76.849 10.3733 78.2623 9.6C79.7023 8.8 81.289 8.4 83.0223 8.4C85.129 8.4 86.9823 8.85333 88.5823 9.76C90.209 10.6667 91.489 11.9333 92.4223 13.56C93.3823 15.1867 93.8623 17.1067 93.8623 19.32C93.8623 21.5333 93.3823 23.4533 92.4223 25.08C91.489 26.7067 90.209 27.9867 88.5823 28.92C86.9823 29.8267 85.129 30.28 83.0223 30.28ZM71.1823 30V0.319998H76.1823V13.6L75.7823 19.28L75.9423 24.96V30H71.1823ZM82.4623 26C83.6623 26 84.729 25.7333 85.6623 25.2C86.6223 24.6667 87.3823 23.8933 87.9423 22.88C88.5023 21.8667 88.7823 20.68 88.7823 19.32C88.7823 17.9333 88.5023 16.7467 87.9423 15.76C87.3823 14.7467 86.6223 13.9733 85.6623 13.44C84.729 12.9067 83.6623 12.64 82.4623 12.64C81.2623 12.64 80.1823 12.9067 79.2223 13.44C78.2623 13.9733 77.5023 14.7467 76.9423 15.76C76.3823 16.7467 76.1023 17.9333 76.1023 19.32C76.1023 20.68 76.3823 21.8667 76.9423 22.88C77.5023 23.8933 78.2623 24.6667 79.2223 25.2C80.1823 25.7333 81.2623 26 82.4623 26ZM108.644 30.28C106.271 30.28 104.191 29.8133 102.404 28.88C100.644 27.92 99.2709 26.6133 98.2842 24.96C97.3242 23.3067 96.8442 21.4267 96.8442 19.32C96.8442 17.1867 97.3109 15.3067 98.2442 13.68C99.2042 12.0267 100.511 10.7333 102.164 9.8C103.844 8.86667 105.751 8.4 107.884 8.4C109.964 8.4 111.818 8.85333 113.444 9.76C115.071 10.6667 116.351 11.9467 117.284 13.6C118.218 15.2533 118.684 17.2 118.684 19.44C118.684 19.6533 118.671 19.8933 118.644 20.16C118.644 20.4267 118.631 20.68 118.604 20.92H100.804V17.6H115.964L114.004 18.64C114.031 17.4133 113.778 16.3333 113.244 15.4C112.711 14.4667 111.978 13.7333 111.044 13.2C110.138 12.6667 109.084 12.4 107.884 12.4C106.658 12.4 105.578 12.6667 104.644 13.2C103.738 13.7333 103.018 14.48 102.484 15.44C101.978 16.3733 101.724 17.48 101.724 18.76V19.56C101.724 20.84 102.018 21.9733 102.604 22.96C103.191 23.9467 104.018 24.7067 105.084 25.24C106.151 25.7733 107.378 26.04 108.764 26.04C109.964 26.04 111.044 25.8533 112.004 25.48C112.964 25.1067 113.818 24.52 114.564 23.72L117.244 26.8C116.284 27.92 115.071 28.7867 113.604 29.4C112.164 29.9867 110.511 30.28 108.644 30.28ZM123.487 30V8.64H128.247V14.52L127.687 12.8C128.327 11.36 129.327 10.2667 130.687 9.52C132.074 8.77333 133.794 8.4 135.847 8.4V13.16C135.634 13.1067 135.434 13.08 135.247 13.08C135.06 13.0533 134.874 13.04 134.687 13.04C132.794 13.04 131.287 13.6 130.167 14.72C129.047 15.8133 128.487 17.4533 128.487 19.64V30H123.487ZM148.91 30.28C146.563 30.28 144.75 29.68 143.47 28.48C142.19 27.2533 141.55 25.4533 141.55 23.08V3.92H146.55V22.96C146.55 23.9733 146.803 24.76 147.31 25.32C147.843 25.88 148.577 26.16 149.51 26.16C150.63 26.16 151.563 25.8667 152.31 25.28L153.71 28.84C153.123 29.32 152.403 29.68 151.55 29.92C150.697 30.16 149.817 30.28 148.91 30.28ZM138.03 12.8V8.8H152.27V12.8H138.03ZM166.72 30.28C164.533 30.28 162.587 29.8133 160.88 28.88C159.173 27.92 157.827 26.6133 156.84 24.96C155.853 23.3067 155.36 21.4267 155.36 19.32C155.36 17.1867 155.853 15.3067 156.84 13.68C157.827 12.0267 159.173 10.7333 160.88 9.8C162.587 8.86667 164.533 8.4 166.72 8.4C168.933 8.4 170.893 8.86667 172.6 9.8C174.333 10.7333 175.68 12.0133 176.64 13.64C177.627 15.2667 178.12 17.16 178.12 19.32C178.12 21.4267 177.627 23.3067 176.64 24.96C175.68 26.6133 174.333 27.92 172.6 28.88C170.893 29.8133 168.933 30.28 166.72 30.28ZM166.72 26C167.947 26 169.04 25.7333 170 25.2C170.96 24.6667 171.707 23.8933 172.24 22.88C172.8 21.8667 173.08 20.68 173.08 19.32C173.08 17.9333 172.8 16.7467 172.24 15.76C171.707 14.7467 170.96 13.9733 170 13.44C169.04 12.9067 167.96 12.64 166.76 12.64C165.533 12.64 164.44 12.9067 163.48 13.44C162.547 13.9733 161.8 14.7467 161.24 15.76C160.68 16.7467 160.4 17.9333 160.4 19.32C160.4 20.68 160.68 21.8667 161.24 22.88C161.8 23.8933 162.547 24.6667 163.48 25.2C164.44 25.7333 165.52 26 166.72 26Z" fill="#3BBA9C"/>
<path d="M25.5217 62V34H29.8017L42.0417 54.44H39.8017L51.8417 34H56.1217L56.1617 62H51.2417L51.2017 41.72H52.2417L42.0017 58.8H39.6817L29.2817 41.72H30.4817V62H25.5217ZM72.8448 62.28C70.6582 62.28 68.7115 61.8133 67.0048 60.88C65.2982 59.92 63.9515 58.6133 62.9648 56.96C61.9782 55.3067 61.4848 53.4267 61.4848 51.32C61.4848 49.1867 61.9782 47.3067 62.9648 45.68C63.9515 44.0267 65.2982 42.7333 67.0048 41.8C68.7115 40.8667 70.6582 40.4 72.8448 40.4C75.0582 40.4 77.0182 40.8667 78.7248 41.8C80.4582 42.7333 81.8048 44.0133 82.7648 45.64C83.7515 47.2667 84.2448 49.16 84.2448 51.32C84.2448 53.4267 83.7515 55.3067 82.7648 56.96C81.8048 58.6133 80.4582 59.92 78.7248 60.88C77.0182 61.8133 75.0582 62.28 72.8448 62.28ZM72.8448 58C74.0715 58 75.1648 57.7333 76.1248 57.2C77.0848 56.6667 77.8315 55.8933 78.3648 54.88C78.9248 53.8667 79.2048 52.68 79.2048 51.32C79.2048 49.9333 78.9248 48.7467 78.3648 47.76C77.8315 46.7467 77.0848 45.9733 76.1248 45.44C75.1648 44.9067 74.0848 44.64 72.8848 44.64C71.6582 44.64 70.5648 44.9067 69.6048 45.44C68.6715 45.9733 67.9248 46.7467 67.3648 47.76C66.8048 48.7467 66.5248 49.9333 66.5248 51.32C66.5248 52.68 66.8048 53.8667 67.3648 54.88C67.9248 55.8933 68.6715 56.6667 69.6048 57.2C70.5648 57.7333 71.6448 58 72.8448 58ZM89.0261 62V40.64H93.7861V46.52L93.2261 44.8C93.8661 43.36 94.8661 42.2667 96.2261 41.52C97.6128 40.7733 99.3328 40.4 101.386 40.4V45.16C101.173 45.1067 100.973 45.08 100.786 45.08C100.599 45.0533 100.413 45.04 100.226 45.04C98.3328 45.04 96.8261 45.6 95.7061 46.72C94.5861 47.8133 94.0261 49.4533 94.0261 51.64V62H89.0261ZM115.472 62.28C113.099 62.28 111.019 61.8133 109.232 60.88C107.472 59.92 106.099 58.6133 105.112 56.96C104.152 55.3067 103.672 53.4267 103.672 51.32C103.672 49.1867 104.139 47.3067 105.072 45.68C106.032 44.0267 107.339 42.7333 108.992 41.8C110.672 40.8667 112.579 40.4 114.712 40.4C116.792 40.4 118.646 40.8533 120.272 41.76C121.899 42.6667 123.179 43.9467 124.112 45.6C125.046 47.2533 125.512 49.2 125.512 51.44C125.512 51.6533 125.499 51.8933 125.472 52.16C125.472 52.4267 125.459 52.68 125.432 52.92H107.632V49.6H122.792L120.832 50.64C120.859 49.4133 120.606 48.3333 120.072 47.4C119.539 46.4667 118.806 45.7333 117.872 45.2C116.966 44.6667 115.912 44.4 114.712 44.4C113.486 44.4 112.406 44.6667 111.472 45.2C110.566 45.7333 109.846 46.48 109.312 47.44C108.806 48.3733 108.552 49.48 108.552 50.76V51.56C108.552 52.84 108.846 53.9733 109.432 54.96C110.019 55.9467 110.846 56.7067 111.912 57.24C112.979 57.7733 114.206 58.04 115.592 58.04C116.792 58.04 117.872 57.8533 118.832 57.48C119.792 57.1067 120.646 56.52 121.392 55.72L124.072 58.8C123.112 59.92 121.899 60.7867 120.432 61.4C118.992 61.9867 117.339 62.28 115.472 62.28ZM142.435 40.4C144.142 40.4 145.662 40.7333 146.995 41.4C148.355 42.0667 149.422 43.0933 150.195 44.48C150.968 45.84 151.355 47.6 151.355 49.76V62H146.355V50.4C146.355 48.5067 145.902 47.0933 144.995 46.16C144.115 45.2267 142.875 44.76 141.275 44.76C140.102 44.76 139.062 45 138.155 45.48C137.248 45.96 136.542 46.68 136.035 47.64C135.555 48.5733 135.315 49.76 135.315 51.2V62H130.315V40.64H135.075V46.4L134.235 44.64C134.982 43.28 136.062 42.24 137.475 41.52C138.915 40.7733 140.568 40.4 142.435 40.4ZM167.337 62.28C165.15 62.28 163.204 61.8133 161.497 60.88C159.79 59.92 158.444 58.6133 157.457 56.96C156.47 55.3067 155.977 53.4267 155.977 51.32C155.977 49.1867 156.47 47.3067 157.457 45.68C158.444 44.0267 159.79 42.7333 161.497 41.8C163.204 40.8667 165.15 40.4 167.337 40.4C169.55 40.4 171.51 40.8667 173.217 41.8C174.95 42.7333 176.297 44.0133 177.257 45.64C178.244 47.2667 178.737 49.16 178.737 51.32C178.737 53.4267 178.244 55.3067 177.257 56.96C176.297 58.6133 174.95 59.92 173.217 60.88C171.51 61.8133 169.55 62.28 167.337 62.28ZM167.337 58C168.564 58 169.657 57.7333 170.617 57.2C171.577 56.6667 172.324 55.8933 172.857 54.88C173.417 53.8667 173.697 52.68 173.697 51.32C173.697 49.9333 173.417 48.7467 172.857 47.76C172.324 46.7467 171.577 45.9733 170.617 45.44C169.657 44.9067 168.577 44.64 167.377 44.64C166.15 44.64 165.057 44.9067 164.097 45.44C163.164 45.9733 162.417 46.7467 161.857 47.76C161.297 48.7467 161.017 49.9333 161.017 51.32C161.017 52.68 161.297 53.8667 161.857 54.88C162.417 55.8933 163.164 56.6667 164.097 57.2C165.057 57.7333 166.137 58 167.337 58Z" fill="#3BBA9C"/>
<path d="M15.2133 61.416C12.0133 61.416 9.60258 60.6053 7.98125 58.984C6.35992 57.4053 5.54925 55.0587 5.54925 51.944V37.224C5.54925 36.1147 5.29325 35.304 4.78125 34.792C4.26925 34.28 3.56525 34.024 2.66925 34.024H0.42925V28.904H2.66925C3.56525 28.904 4.26925 28.648 4.78125 28.136C5.29325 27.624 5.54925 26.8133 5.54925 25.704V10.984C5.54925 7.82666 6.35992 5.45866 7.98125 3.88C9.60258 2.30133 12.0133 1.512 15.2133 1.512H18.0293V6.568H16.4293C14.8506 6.568 13.6559 6.99466 12.8453 7.848C12.0773 8.70133 11.6933 9.93866 11.6933 11.56V25.576C11.6933 27.0693 11.5013 28.2427 11.1173 29.096C10.7333 29.9067 10.1573 30.5253 9.38925 30.952C8.66392 31.336 7.70392 31.6347 6.50925 31.848V31.08C7.70392 31.2507 8.66392 31.5493 9.38925 31.976C10.1573 32.4027 10.7333 33.0427 11.1173 33.896C11.5013 34.7067 11.6933 35.8587 11.6933 37.352V51.368C11.6933 52.9893 12.0773 54.2267 12.8453 55.08C13.6559 55.9333 14.8506 56.36 16.4293 56.36H18.0293V61.416H15.2133Z" fill="#3BBA9C"/>
<path d="M188.813 61.416H185.997V56.36H187.533C189.197 56.36 190.413 55.9333 191.181 55.08C191.992 54.2267 192.397 52.9893 192.397 51.368V37.352C192.397 35.8587 192.568 34.7067 192.909 33.896C193.293 33.0427 193.869 32.4027 194.637 31.976C195.405 31.5493 196.365 31.2507 197.517 31.08V31.848C196.365 31.6347 195.405 31.336 194.637 30.952C193.869 30.5253 193.293 29.9067 192.909 29.096C192.568 28.2427 192.397 27.0693 192.397 25.576V11.56C192.397 9.93866 191.992 8.70133 191.181 7.848C190.413 6.99466 189.197 6.568 187.533 6.568H185.997V1.512H188.813C192.013 1.512 194.424 2.30133 196.045 3.88C197.709 5.45866 198.541 7.82666 198.541 10.984V25.704C198.541 26.8133 198.797 27.624 199.309 28.136C199.821 28.648 200.504 28.904 201.357 28.904H203.533V34.024H201.357C200.504 34.024 199.821 34.28 199.309 34.792C198.797 35.304 198.541 36.1147 198.541 37.224V51.944C198.541 55.0587 197.709 57.4053 196.045 58.984C194.424 60.6053 192.013 61.416 188.813 61.416Z" fill="#3BBA9C"/>
</svg>
